<?xml version="1.0" encoding="UTF-8"?>
<svg xmlns="http://www.w3.org/2000/svg" width="1495" height="2392" viewBox="0 0 1495 2392" role="img" aria-labelledby="flow-title flow-desc">
<title id="flow-title">《雾城夜行》分集流程图</title>
<desc id="flow-desc">互动影视分集节点与选择流程图</desc>
<defs><marker id="arrow" viewBox="0 0 10 10" refX="9" refY="5" markerWidth="7" markerHeight="7" orient="auto-start-reverse"><path d="M 0 0 L 10 5 L 0 10 z" fill="#796455"/></marker></defs>
<rect width="100%" height="100%" rx="24" fill="#fbf7ef"/>
<text x="747.5" y="42" text-anchor="middle" font-family="PingFang SC, Microsoft YaHei, sans-serif" font-size="24" font-weight="700" fill="#2c211b">《雾城夜行》分集流程图</text>
<path data-edge-from="episode-001" data-edge-to="episode-002" d="M 747.5 166.0 C 747.5 223.6, 747.5 228.4, 747.5 286.0" fill="none" stroke="#796455" stroke-width="2.2" marker-end="url(#arrow)"/>
<path data-edge-from="episode-002" data-edge-to="episode-003" d="M 747.5 360.0 C 747.5 417.6, 570.0 422.4, 570.0 480.0" fill="none" stroke="#796455" stroke-width="2.2" marker-end="url(#arrow)"/>
<rect x="602.8" y="398.0" width="112" height="24" rx="9" fill="#fbf7ef" stroke="#d7c7b8"/>
<text x="658.8" y="415.0" text-anchor="middle" font-family="PingFang SC, Microsoft YaHei, sans-serif" font-size="13" fill="#5c493d">救助倒地乘客</text>
<path data-edge-from="episode-002" data-edge-to="episode-004" d="M 747.5 360.0 C 747.5 417.6, 925.0 422.4, 925.0 480.0" fill="none" stroke="#796455" stroke-width="2.2" marker-end="url(#arrow)"/>
<rect x="787.8" y="398.0" width="97" height="24" rx="9" fill="#fbf7ef" stroke="#d7c7b8"/>
<text x="836.2" y="415.0" text-anchor="middle" font-family="PingFang SC, Microsoft YaHei, sans-serif" font-size="13" fill="#5c493d">追踪无面蜃</text>
<path data-edge-from="episode-003" data-edge-to="episode-005" d="M 570.0 554.0 C 570.0 611.6, 747.5 616.4, 747.5 674.0" fill="none" stroke="#796455" stroke-width="2.2" marker-end="url(#arrow)"/>
<path data-edge-from="episode-004" data-edge-to="episode-005" d="M 925.0 554.0 C 925.0 611.6, 747.5 616.4, 747.5 674.0" fill="none" stroke="#796455" stroke-width="2.2" marker-end="url(#arrow)"/>
<path data-edge-from="episode-005" data-edge-to="episode-006" d="M 747.5 748.0 C 747.5 805.6, 747.5 810.4, 747.5 868.0" fill="none" stroke="#796455" stroke-width="2.2" marker-end="url(#arrow)"/>
<path data-edge-from="episode-006" data-edge-to="episode-007" d="M 747.5 942.0 C 747.5 999.6, 570.0 1004.4, 570.0 1062.0" fill="none" stroke="#796455" stroke-width="2.2" marker-end="url(#arrow)"/>
<rect x="602.8" y="980.0" width="112" height="24" rx="9" fill="#fbf7ef" stroke="#d7c7b8"/>
<text x="658.8" y="997.0" text-anchor="middle" font-family="PingFang SC, Microsoft YaHei, sans-serif" font-size="13" fill="#5c493d">交出异常录音</text>
<path data-edge-from="episode-006" data-edge-to="episode-008" d="M 747.5 942.0 C 747.5 999.6, 925.0 1004.4, 925.0 1062.0" fill="none" stroke="#796455" stroke-width="2.2" marker-end="url(#arrow)"/>
<rect x="780.2" y="980.0" width="112" height="24" rx="9" fill="#fbf7ef" stroke="#d7c7b8"/>
<text x="836.2" y="997.0" text-anchor="middle" font-family="PingFang SC, Microsoft YaHei, sans-serif" font-size="13" fill="#5c493d">保留异常录音</text>
<path data-edge-from="episode-007" data-edge-to="episode-009" d="M 570.0 1136.0 C 570.0 1193.6, 570.0 1198.4, 570.0 1256.0" fill="none" stroke="#796455" stroke-width="2.2" marker-end="url(#arrow)"/>
<path data-edge-from="episode-008" data-edge-to="episode-010" d="M 925.0 1136.0 C 925.0 1193.6, 925.0 1198.4, 925.0 1256.0" fill="none" stroke="#796455" stroke-width="2.2" marker-end="url(#arrow)"/>
<path data-edge-from="episode-009" data-edge-to="episode-011" d="M 570.0 1330.0 C 570.0 1387.6, 570.0 1392.4, 570.0 1450.0" fill="none" stroke="#796455" stroke-width="2.2" marker-end="url(#arrow)"/>
<path data-edge-from="episode-010" data-edge-to="episode-012" d="M 925.0 1330.0 C 925.0 1387.6, 925.0 1392.4, 925.0 1450.0" fill="none" stroke="#796455" stroke-width="2.2" marker-end="url(#arrow)"/>
<path data-edge-from="episode-011" data-edge-to="episode-013" d="M 570.0 1524.0 C 570.0 1581.6, 747.5 1586.4, 747.5 1644.0" fill="none" stroke="#796455" stroke-width="2.2" marker-end="url(#arrow)"/>
<path data-edge-from="episode-012" data-edge-to="episode-013" d="M 925.0 1524.0 C 925.0 1581.6, 747.5 1586.4, 747.5 1644.0" fill="none" stroke="#796455" stroke-width="2.2" marker-end="url(#arrow)"/>
<path data-edge-from="episode-013" data-edge-to="episode-014" d="M 747.5 1718.0 C 747.5 1775.6, 570.0 1780.4, 570.0 1838.0" fill="none" stroke="#796455" stroke-width="2.2" marker-end="url(#arrow)"/>
<rect x="602.8" y="1756.0" width="112" height="24" rx="9" fill="#fbf7ef" stroke="#d7c7b8"/>
<text x="658.8" y="1773.0" text-anchor="middle" font-family="PingFang SC, Microsoft YaHei, sans-serif" font-size="13" fill="#5c493d">协助顾岚围捕</text>
<path data-edge-from="episode-013" data-edge-to="episode-015" d="M 747.5 1718.0 C 747.5 1775.6, 925.0 1780.4, 925.0 1838.0" fill="none" stroke="#796455" stroke-width="2.2" marker-end="url(#arrow)"/>
<rect x="772.8" y="1756.0" width="127" height="24" rx="9" fill="#fbf7ef" stroke="#d7c7b8"/>
<text x="836.2" y="1773.0" text-anchor="middle" font-family="PingFang SC, Microsoft YaHei, sans-serif" font-size="13" fill="#5c493d">帮助无面蜃撤退</text>
<path data-edge-from="episode-014" data-edge-to="episode-016" d="M 570.0 1912.0 C 570.0 1969.6, 747.5 1974.4, 747.5 2032.0" fill="none" stroke="#796455" stroke-width="2.2" marker-end="url(#arrow)"/>
<path data-edge-from="episode-015" data-edge-to="episode-016" d="M 925.0 1912.0 C 925.0 1969.6, 747.5 1974.4, 747.5 2032.0" fill="none" stroke="#796455" stroke-width="2.2" marker-end="url(#arrow)"/>
<path data-edge-from="episode-016" data-edge-to="episode-017" d="M 747.5 2106.0 C 747.5 2163.6, 215.0 2168.4, 215.0 2226.0" fill="none" stroke="#796455" stroke-width="2.2" marker-end="url(#arrow)"/>
<rect x="425.2" y="2144.0" width="112" height="24" rx="9" fill="#fbf7ef" stroke="#d7c7b8"/>
<text x="481.2" y="2161.0" text-anchor="middle" font-family="PingFang SC, Microsoft YaHei, sans-serif" font-size="13" fill="#5c493d">启动清除装置</text>
<path data-edge-from="episode-016" data-edge-to="episode-018" d="M 747.5 2106.0 C 747.5 2163.6, 570.0 2168.4, 570.0 2226.0" fill="none" stroke="#796455" stroke-width="2.2" marker-end="url(#arrow)"/>
<rect x="602.8" y="2144.0" width="112" height="24" rx="9" fill="#fbf7ef" stroke="#d7c7b8"/>
<text x="658.8" y="2161.0" text-anchor="middle" font-family="PingFang SC, Microsoft YaHei, sans-serif" font-size="13" fill="#5c493d">封存夜层边界</text>
<path data-edge-from="episode-016" data-edge-to="episode-019" d="M 747.5 2106.0 C 747.5 2163.6, 925.0 2168.4, 925.0 2226.0" fill="none" stroke="#796455" stroke-width="2.2" marker-end="url(#arrow)"/>
<rect x="780.2" y="2144.0" width="112" height="24" rx="9" fill="#fbf7ef" stroke="#d7c7b8"/>
<text x="836.2" y="2161.0" text-anchor="middle" font-family="PingFang SC, Microsoft YaHei, sans-serif" font-size="13" fill="#5c493d">释放全部记忆</text>
<path data-edge-from="episode-016" data-edge-to="episode-020" d="M 747.5 2106.0 C 747.5 2163.6, 1280.0 2168.4, 1280.0 2226.0" fill="none" stroke="#796455" stroke-width="2.2" marker-end="url(#arrow)"/>
<rect x="957.8" y="2144.0" width="112" height="24" rx="9" fill="#fbf7ef" stroke="#d7c7b8"/>
<text x="1013.8" y="2161.0" text-anchor="middle" font-family="PingFang SC, Microsoft YaHei, sans-serif" font-size="13" fill="#5c493d">拒绝接住记忆</text>
<g data-node-id="episode-001">
<rect x="622.5" y="92.0" width="250" height="74" rx="18" fill="#f2eadf" stroke="#796455" stroke-width="2.4"/>
<text x="642.5" y="119.0" font-family="SFMono-Regular, Menlo, monospace" font-size="14" font-weight="700" fill="#796455">001</text>
<text x="760.5" y="121.0" text-anchor="middle" font-family="PingFang SC, Microsoft YaHei, sans-serif" font-size="16" font-weight="650" fill="#2c211b">黑色地址</text>
</g>
<g data-node-id="episode-002">
<rect x="622.5" y="286.0" width="250" height="74" rx="28" fill="#fff0cf" stroke="#a46f22" stroke-width="3"/>
<text x="642.5" y="313.0" font-family="SFMono-Regular, Menlo, monospace" font-size="14" font-weight="700" fill="#a46f22">002</text>
<text x="760.5" y="315.0" text-anchor="middle" font-family="PingFang SC, Microsoft YaHei, sans-serif" font-size="16" font-weight="650" fill="#2c211b">末班站台</text>
</g>
<g data-node-id="episode-003">
<rect x="445.0" y="480.0" width="250" height="74" rx="18" fill="#f2eadf" stroke="#796455" stroke-width="2.4"/>
<text x="465.0" y="507.0" font-family="SFMono-Regular, Menlo, monospace" font-size="14" font-weight="700" fill="#796455">003</text>
<text x="583.0" y="509.0" text-anchor="middle" font-family="PingFang SC, Microsoft YaHei, sans-serif" font-size="16" font-weight="650" fill="#2c211b">先救眼前的人</text>
</g>
<g data-node-id="episode-004">
<rect x="800.0" y="480.0" width="250" height="74" rx="18" fill="#f2eadf" stroke="#796455" stroke-width="2.4"/>
<text x="820.0" y="507.0" font-family="SFMono-Regular, Menlo, monospace" font-size="14" font-weight="700" fill="#796455">004</text>
<text x="938.0" y="509.0" text-anchor="middle" font-family="PingFang SC, Microsoft YaHei, sans-serif" font-size="16" font-weight="650" fill="#2c211b">红门后的雾</text>
</g>
<g data-node-id="episode-005">
<rect x="622.5" y="674.0" width="250" height="74" rx="18" fill="#f2eadf" stroke="#796455" stroke-width="2.4"/>
<text x="642.5" y="701.0" font-family="SFMono-Regular, Menlo, monospace" font-size="14" font-weight="700" fill="#796455">005</text>
<text x="760.5" y="703.0" text-anchor="middle" font-family="PingFang SC, Microsoft YaHei, sans-serif" font-size="16" font-weight="650" fill="#2c211b">录音里的母亲</text>
</g>
<g data-node-id="episode-006">
<rect x="622.5" y="868.0" width="250" height="74" rx="28" fill="#fff0cf" stroke="#a46f22" stroke-width="3"/>
<text x="642.5" y="895.0" font-family="SFMono-Regular, Menlo, monospace" font-size="14" font-weight="700" fill="#a46f22">006</text>
<text x="760.5" y="897.0" text-anchor="middle" font-family="PingFang SC, Microsoft YaHei, sans-serif" font-size="16" font-weight="650" fill="#2c211b">静默科来人</text>
</g>
<g data-node-id="episode-007">
<rect x="445.0" y="1062.0" width="250" height="74" rx="18" fill="#f2eadf" stroke="#796455" stroke-width="2.4"/>
<text x="465.0" y="1089.0" font-family="SFMono-Regular, Menlo, monospace" font-size="14" font-weight="700" fill="#796455">007</text>
<text x="583.0" y="1091.0" text-anchor="middle" font-family="PingFang SC, Microsoft YaHei, sans-serif" font-size="16" font-weight="650" fill="#2c211b">秩序的通行证</text>
</g>
<g data-node-id="episode-008">
<rect x="800.0" y="1062.0" width="250" height="74" rx="18" fill="#f2eadf" stroke="#796455" stroke-width="2.4"/>
<text x="820.0" y="1089.0" font-family="SFMono-Regular, Menlo, monospace" font-size="14" font-weight="700" fill="#796455">008</text>
<text x="938.0" y="1091.0" text-anchor="middle" font-family="PingFang SC, Microsoft YaHei, sans-serif" font-size="16" font-weight="650" fill="#2c211b">从车库离开</text>
</g>
<g data-node-id="episode-009">
<rect x="445.0" y="1256.0" width="250" height="74" rx="18" fill="#f2eadf" stroke="#796455" stroke-width="2.4"/>
<text x="465.0" y="1283.0" font-family="SFMono-Regular, Menlo, monospace" font-size="14" font-weight="700" fill="#796455">009</text>
<text x="583.0" y="1285.0" text-anchor="middle" font-family="PingFang SC, Microsoft YaHei, sans-serif" font-size="16" font-weight="650" fill="#2c211b">桥下的示范</text>
</g>
<g data-node-id="episode-010">
<rect x="800.0" y="1256.0" width="250" height="74" rx="18" fill="#f2eadf" stroke="#796455" stroke-width="2.4"/>
<text x="820.0" y="1283.0" font-family="SFMono-Regular, Menlo, monospace" font-size="14" font-weight="700" fill="#796455">010</text>
<text x="938.0" y="1285.0" text-anchor="middle" font-family="PingFang SC, Microsoft YaHei, sans-serif" font-size="16" font-weight="650" fill="#2c211b">停在零点十七分</text>
</g>
<g data-node-id="episode-011">
<rect x="445.0" y="1450.0" width="250" height="74" rx="18" fill="#f2eadf" stroke="#796455" stroke-width="2.4"/>
<text x="465.0" y="1477.0" font-family="SFMono-Regular, Menlo, monospace" font-size="14" font-weight="700" fill="#796455">011</text>
<text x="583.0" y="1479.0" text-anchor="middle" font-family="PingFang SC, Microsoft YaHei, sans-serif" font-size="16" font-weight="650" fill="#2c211b">被删除的求救</text>
</g>
<g data-node-id="episode-012">
<rect x="800.0" y="1450.0" width="250" height="74" rx="18" fill="#f2eadf" stroke="#796455" stroke-width="2.4"/>
<text x="820.0" y="1477.0" font-family="SFMono-Regular, Menlo, monospace" font-size="14" font-weight="700" fill="#796455">012</text>
<text x="938.0" y="1479.0" text-anchor="middle" font-family="PingFang SC, Microsoft YaHei, sans-serif" font-size="16" font-weight="650" fill="#2c211b">磁带转起来</text>
</g>
<g data-node-id="episode-013">
<rect x="622.5" y="1644.0" width="250" height="74" rx="28" fill="#fff0cf" stroke="#a46f22" stroke-width="3"/>
<text x="642.5" y="1671.0" font-family="SFMono-Regular, Menlo, monospace" font-size="14" font-weight="700" fill="#a46f22">013</text>
<text x="760.5" y="1673.0" text-anchor="middle" font-family="PingFang SC, Microsoft YaHei, sans-serif" font-size="16" font-weight="650" fill="#2c211b">围捕倒计时</text>
</g>
<g data-node-id="episode-014">
<rect x="445.0" y="1838.0" width="250" height="74" rx="18" fill="#f2eadf" stroke="#796455" stroke-width="2.4"/>
<text x="465.0" y="1865.0" font-family="SFMono-Regular, Menlo, monospace" font-size="14" font-weight="700" fill="#796455">014</text>
<text x="583.0" y="1867.0" text-anchor="middle" font-family="PingFang SC, Microsoft YaHei, sans-serif" font-size="16" font-weight="650" fill="#2c211b">把它困在灯下</text>
</g>
<g data-node-id="episode-015">
<rect x="800.0" y="1838.0" width="250" height="74" rx="18" fill="#f2eadf" stroke="#796455" stroke-width="2.4"/>
<text x="820.0" y="1865.0" font-family="SFMono-Regular, Menlo, monospace" font-size="14" font-weight="700" fill="#796455">015</text>
<text x="938.0" y="1867.0" text-anchor="middle" font-family="PingFang SC, Microsoft YaHei, sans-serif" font-size="16" font-weight="650" fill="#2c211b">调转低频装置</text>
</g>
<g data-node-id="episode-016">
<rect x="622.5" y="2032.0" width="250" height="74" rx="28" fill="#fff0cf" stroke="#a46f22" stroke-width="3"/>
<text x="642.5" y="2059.0" font-family="SFMono-Regular, Menlo, monospace" font-size="14" font-weight="700" fill="#a46f22">016</text>
<text x="760.5" y="2061.0" text-anchor="middle" font-family="PingFang SC, Microsoft YaHei, sans-serif" font-size="16" font-weight="650" fill="#2c211b">夜层中的人</text>
</g>
<g data-node-id="episode-017">
<rect x="90.0" y="2226.0" width="250" height="74" rx="18" fill="#f8e1dc" stroke="#b75845" stroke-width="3"/>
<text x="110.0" y="2253.0" font-family="SFMono-Regular, Menlo, monospace" font-size="14" font-weight="700" fill="#b75845">017</text>
<text x="228.0" y="2255.0" text-anchor="middle" font-family="PingFang SC, Microsoft YaHei, sans-serif" font-size="16" font-weight="650" fill="#2c211b">天亮之后</text>
</g>
<g data-node-id="episode-018">
<rect x="445.0" y="2226.0" width="250" height="74" rx="18" fill="#f8e1dc" stroke="#b75845" stroke-width="3"/>
<text x="465.0" y="2253.0" font-family="SFMono-Regular, Menlo, monospace" font-size="14" font-weight="700" fill="#b75845">018</text>
<text x="583.0" y="2255.0" text-anchor="middle" font-family="PingFang SC, Microsoft YaHei, sans-serif" font-size="16" font-weight="650" fill="#2c211b">城市的影子</text>
</g>
<g data-node-id="episode-019">
<rect x="800.0" y="2226.0" width="250" height="74" rx="18" fill="#f8e1dc" stroke="#b75845" stroke-width="3"/>
<text x="820.0" y="2253.0" font-family="SFMono-Regular, Menlo, monospace" font-size="14" font-weight="700" fill="#b75845">019</text>
<text x="938.0" y="2255.0" text-anchor="middle" font-family="PingFang SC, Microsoft YaHei, sans-serif" font-size="16" font-weight="650" fill="#2c211b">所有人都记得</text>
</g>
<g data-node-id="episode-020">
<rect x="1155.0" y="2226.0" width="250" height="74" rx="18" fill="#f8e1dc" stroke="#b75845" stroke-width="3"/>
<text x="1175.0" y="2253.0" font-family="SFMono-Regular, Menlo, monospace" font-size="14" font-weight="700" fill="#b75845">020</text>
<text x="1293.0" y="2255.0" text-anchor="middle" font-family="PingFang SC, Microsoft YaHei, sans-serif" font-size="16" font-weight="650" fill="#2c211b">无名乘客</text>
</g>
</svg>
